# xmcd CD database file
# Copyright (C) 1993-1998 Ti Kan
# 
# Track frame offsets:
#     150
#     12557
#     24450
#     36182
#     45980
#     56570
#     66825
#     79712
#     92125
#     102182
#     116472
#     130272
#     141395
#     152710
#     162532
# 
# Disc length: 2322 seconds
# 
# Revision: 1
# Processed by: cddbd v1.4b41PL1 Copyright (c) Steve Scherf et al.
# Submitted via: DiscPlay 4.0.4
# 
DISCID=c609100f
DTITLE=Patsy Cline - The Patsy Cline - Collection Sampler
DYEAR=1900
DGENRE=
TTITLE0=I'm Walking The Dog
TTITLE1=Honky Tonk Merry Go Round
TTITLE2=Walkin' After Midnight
TTITLE3=Love, Love, Love Me Honey Do
TTITLE4=Lovesick Blues
TTITLE5=Stupid Cupid
TTITLE6=I Fall To Pieces
TTITLE7=Crazy
TTITLE8=Seven Loney Days
TTITLE9=She's Got You
TTITLE10=So Wrong
TTITLE11=Leavin' On Your Mind
TTITLE12=Tennesse Waltz
TTITLE13=Blue Moon Of Kentucky
TTITLE14=Sweet Dreams (of You)
EXTD=
EXTT0=
EXTT1=
EXTT2=
EXTT3=
EXTT4=
EXTT5=
EXTT6=
EXTT7=
EXTT8=
EXTT9=
EXTT10=
EXTT11=
EXTT12=
EXTT13=
EXTT14=
PLAYORDER=
